<?xml version="1.0" encoding="UTF-8"?>
<svg id="Vector_Logo" data-name="Vector Logo" xmlns="http://www.w3.org/2000/svg" xmlns:xlink="http://www.w3.org/1999/xlink" viewBox="0 0 1080 1080">
  <defs>
    <style>
      .cls-1 {
        fill: url(#linear-gradient-15);
      }

      .cls-2 {
        fill: url(#linear-gradient-13);
      }

      .cls-3 {
        fill: #faad4c;
      }

      .cls-4 {
        fill: url(#linear-gradient-2);
      }

      .cls-5 {
        fill: url(#linear-gradient-10);
      }

      .cls-6 {
        fill: url(#linear-gradient-12);
      }

      .cls-7 {
        fill: #9556a2;
      }

      .cls-8, .cls-9 {
        fill: none;
      }

      .cls-10 {
        fill: url(#linear-gradient-4);
      }

      .cls-11 {
        fill: #fce25d;
      }

      .cls-12 {
        fill: url(#linear-gradient-3);
      }

      .cls-13 {
        fill: url(#linear-gradient-5);
      }

      .cls-14 {
        fill: url(#linear-gradient-8);
      }

      .cls-15 {
        fill: url(#linear-gradient-14);
      }

      .cls-16 {
        fill: #fbbc4e;
      }

      .cls-17 {
        fill: url(#linear-gradient-17);
      }

      .cls-18 {
        fill: url(#linear-gradient-7);
      }

      .cls-19 {
        fill: url(#linear-gradient-9);
      }

      .cls-20 {
        fill: url(#linear-gradient-11);
      }

      .cls-9 {
        stroke: #ddd;
        stroke-width: .25px;
      }

      .cls-21 {
        fill: url(#linear-gradient-6);
      }

      .cls-22 {
        fill: url(#linear-gradient-16);
      }

      .cls-23 {
        fill: url(#linear-gradient);
      }

      .cls-24 {
        clip-path: url(#clippath);
      }
    </style>
    <clipPath id="clippath">
      <path class="cls-8" d="M606.91,487.99l2.68-1.66c13.12-7.92,28.5-12.47,44.94-12.47,48.11,0,87.11,39,87.11,87.11,0,48.11-39,87.11-87.11,87.11-17.01,0-33.11-4.62-46.51-13.04-51.13-31.48-111.42-49.7-176.09-49.87-77.98-.2-149.74,26.6-206.71,71.22l-10.84,8.88.4-.34c-21.4,15.76-47.82,25.09-76.44,25.09-71.27,0-129.05-57.78-129.05-129.05s57.78-129.05,129.05-129.05c28.61,0,55.04,9.33,76.44,25.09l10.44,8.54c56.97,44.62,128.73,70.97,206.71,71.22,64.52.21,124.76-17.86,175.88-49.33M425.47,693.24c-48.11,0-87.11,39-87.11,87.11s39,87.11,87.11,87.11,87.11-39,87.11-87.11-39-87.11-87.11-87.11ZM473.09,268.61l-2.68-1.66c-13.12-7.92-28.5-12.47-44.94-12.47-48.11,0-87.11,39-87.11,87.11s39,87.11,87.11,87.11c17.01,0,33.11-4.62,46.51-13.04,51.13-31.48,111.42-49.7,176.09-49.87,77.98-.2,149.74,26.6,206.71,71.22l10.84,8.88-.4-.34c21.4,15.76,47.82,25.09,76.44,25.09,71.27,0,129.05-57.78,129.05-129.05s-57.78-129.05-129.05-129.05c-28.61,0-55.04,9.33-76.44,25.09l-10.44,8.54c-56.97,44.62-128.73,70.97-206.71,71.22-64.52.21-124.76-17.86-175.88-49.33"/>
    </clipPath>
    <linearGradient id="linear-gradient" x1="430.4" y1="788.12" x2="452.63" y2="898.86" gradientUnits="userSpaceOnUse">
      <stop offset=".18" stop-color="#2b55a5"/>
      <stop offset=".37" stop-color="#2d61ad"/>
      <stop offset=".62" stop-color="#2e6ab3"/>
      <stop offset=".99" stop-color="#2f6db5"/>
    </linearGradient>
    <linearGradient id="linear-gradient-2" x1="307.07" y1="781.4" x2="589.98" y2="781.4" gradientUnits="userSpaceOnUse">
      <stop offset=".36" stop-color="#2b3a84"/>
      <stop offset=".61" stop-color="#254092"/>
    </linearGradient>
    <linearGradient id="linear-gradient-3" x1="320.66" y1="761.98" x2="582.18" y2="761.98" gradientUnits="userSpaceOnUse">
      <stop offset=".32" stop-color="#2c65af"/>
      <stop offset=".79" stop-color="#277fc2"/>
      <stop offset=".9" stop-color="#2687c8"/>
    </linearGradient>
    <linearGradient id="linear-gradient-4" x1="418.74" y1="663.03" x2="491.89" y2="829.93" gradientUnits="userSpaceOnUse">
      <stop offset=".32" stop-color="#2c65af"/>
      <stop offset=".57" stop-color="#277fc2"/>
      <stop offset=".63" stop-color="#2687c8"/>
    </linearGradient>
    <linearGradient id="linear-gradient-5" x1="440.03" y1="674.49" x2="447.92" y2="720.15" gradientUnits="userSpaceOnUse">
      <stop offset="0" stop-color="#5bbbd7"/>
      <stop offset=".56" stop-color="#40b6e5"/>
      <stop offset=".63" stop-color="#3cb6e8"/>
    </linearGradient>
    <linearGradient id="linear-gradient-6" x1="159.87" y1="444.76" x2="159.87" y2="539.02" gradientUnits="userSpaceOnUse">
      <stop offset=".11" stop-color="#f5937b"/>
      <stop offset=".47" stop-color="#f38585"/>
    </linearGradient>
    <linearGradient id="linear-gradient-7" x1="223.5" y1="479.49" x2="232.25" y2="560.98" gradientUnits="userSpaceOnUse">
      <stop offset=".42" stop-color="#f06b86"/>
      <stop offset=".9" stop-color="#ef5d94"/>
    </linearGradient>
    <linearGradient id="linear-gradient-8" x1="222.28" y1="557.98" x2="540.28" y2="557.98" gradientUnits="userSpaceOnUse">
      <stop offset=".15" stop-color="#b84297"/>
      <stop offset=".79" stop-color="#d2509c"/>
      <stop offset="1" stop-color="#dd569f"/>
    </linearGradient>
    <linearGradient id="linear-gradient-9" x1="314.02" y1="492.7" x2="445.6" y2="728.63" gradientUnits="userSpaceOnUse">
      <stop offset="0" stop-color="#993793"/>
      <stop offset=".29" stop-color="#b43f96"/>
      <stop offset=".61" stop-color="#d64b9a"/>
    </linearGradient>
    <linearGradient id="linear-gradient-10" x1="437.89" y1="577.32" x2="446.63" y2="626.92" gradientUnits="userSpaceOnUse">
      <stop offset=".15" stop-color="#7c52a1"/>
      <stop offset=".78" stop-color="#7066ad"/>
    </linearGradient>
    <linearGradient id="linear-gradient-11" x1="60.08" y1="624.31" x2="818.39" y2="624.31" gradientUnits="userSpaceOnUse">
      <stop offset=".72" stop-color="#2fb2e6"/>
      <stop offset=".83" stop-color="#479fd8"/>
    </linearGradient>
    <linearGradient id="linear-gradient-12" x1="669.45" y1="253.03" x2="716.63" y2="417.56" gradientUnits="userSpaceOnUse">
      <stop offset="0" stop-color="#faad4e"/>
      <stop offset=".25" stop-color="#faae50"/>
      <stop offset=".4" stop-color="#fab259"/>
      <stop offset=".53" stop-color="#fab867"/>
      <stop offset=".64" stop-color="#fbc27c"/>
      <stop offset=".75" stop-color="#fcce96"/>
      <stop offset=".84" stop-color="#fcddb7"/>
      <stop offset=".93" stop-color="#feefdd"/>
      <stop offset="1" stop-color="#fff"/>
    </linearGradient>
    <linearGradient id="linear-gradient-13" x1="344.11" y1="332.08" x2="1109.56" y2="332.08" gradientUnits="userSpaceOnUse">
      <stop offset=".11" stop-color="#f59077"/>
      <stop offset=".87" stop-color="#f6996e"/>
      <stop offset="1" stop-color="#f6996e"/>
    </linearGradient>
    <linearGradient id="linear-gradient-14" x1="691.62" y1="286.92" x2="1120.01" y2="367.22" gradientTransform="translate(10.74 -14.08) rotate(1.27)" gradientUnits="userSpaceOnUse">
      <stop offset=".03" stop-color="#f1737b"/>
      <stop offset="1" stop-color="#f48c76"/>
    </linearGradient>
    <linearGradient id="linear-gradient-15" x1="910.06" y1="338.03" x2="937.14" y2="401.83" gradientUnits="userSpaceOnUse">
      <stop offset=".39" stop-color="#ec4a99"/>
      <stop offset=".45" stop-color="#e7569f"/>
      <stop offset=".51" stop-color="#e65ca2"/>
    </linearGradient>
    <linearGradient id="linear-gradient-16" x1="973.36" y1="353.09" x2="1021.05" y2="435.68" gradientUnits="userSpaceOnUse">
      <stop offset=".03" stop-color="#9562a9"/>
      <stop offset=".37" stop-color="#915da6"/>
    </linearGradient>
    <linearGradient id="linear-gradient-17" x1="995.35" y1="381.11" x2="1045.43" y2="467.86" gradientUnits="userSpaceOnUse">
      <stop offset=".1" stop-color="#74cbd0"/>
      <stop offset=".18" stop-color="#6ac5d2"/>
      <stop offset=".45" stop-color="#52b5d9"/>
      <stop offset=".7" stop-color="#43acdd"/>
      <stop offset=".9" stop-color="#3ea9df"/>
    </linearGradient>
  </defs>
  <g class="cls-24">
    <g>
      <polyline class="cls-23" points="331.87 803.28 339.82 843.33 408.74 884.86 482.86 870.61 533.04 820.93 539.1 791.44 531.94 771.41 482.86 784.99 428.96 794.98 357.25 799.97 324.85 800.45"/>
      <path class="cls-4" d="M317.47,779.33l20.9,31.3s79.94-3.52,199.67-33.03c119.72-29.51-4.99-25.22-4.99-25.22l-93.81,23.79-132.17-4.76"/>
      <path class="cls-12" d="M331.87,764.78l-1.37,18.77s.76.37,2.31.95c11.71,4.36,68.8,20.66,188.91-19.72,136.03-45.72,0-29.45,0-29.45l-201.06,24.7,4.18,22.36,5.66,9.04,3.3-3.28"/>
      <path class="cls-10" d="M347.37,719.8l-19.6,25.23v21.46s88.03,20.31,207.39-21.63c119.37-41.94-47.21-55.1-47.21-55.1l-130.23,22.84"/>
      <path class="cls-13" d="M343.24,720.78s71.3,12.4,173.55-12.41c102.25-24.8-77.55-30.83-77.55-30.83l-78.18,14.81"/>
      <polyline class="cls-3" points="26.14 463.98 69.59 431.92 109.87 421.36 193.87 417.25 232.11 459.67 153.98 463.98 14.5 472.54"/>
      <path class="cls-21" d="M30.66,462.51s66.87-15.82,201.24-11.23c134.37,4.59,94.42,55.03,94.42,55.03l-96.52,9.01-241.94,29.39,17.33-49.86"/>
      <path class="cls-18" d="M1.24,524.55s88.68-31.2,287.1-29.65c198.42,1.55,77.43,25.37,77.43,25.37l107.97,9.73-73.85,21.67-107.88,14.98-126.38,7.18-102.47,19.08L-1.24,614.22l-10.9-49.24,6.39-31.5"/>
      <polyline class="cls-14" points="126.84 620.01 276.27 578.34 436.13 554.46 541.71 530.74 639.4 498.07 698.57 467.82 733.38 485.26 738.35 509.24 662.03 540.96 522.46 579.43 419.03 600.69 244.32 624.14 131.54 642.89 99.03 648.14 78.79 624.31"/>
      <path class="cls-19" d="M-1.24,605.39s71.71-25.95,158.87-38.41c87.17-12.46,138.79.44,296.87-35.04,158.08-35.49,129.51-46.68,129.51-46.68l65.67-25.58,46.29,19.62s-51.66,29.49-93.33,39.45c-41.67,9.96-117.09,38.64-218.1,51.72-101.02,13.09-240.37,51-240.37,51l-4.29,10.91-120.74,29.86-17.9-36.65"/>
      <path class="cls-5" d="M22.2,644.85c48.39,0,42.17-12.41,146.91-27.18,104.73-14.76,255.31-25.5,255.31-25.5l9.38-7.07s130.25-5.06,325.51-96.87c195.26-91.8,2.13,91.61,2.13,91.61l-83.82,41.27-90.92,19.39-361.24,23.71-150.63,25.55-29.5-20.49"/>
      <path class="cls-20" d="M60.08,681.77l223.1-30.71,301.91-23.18s59.76.84,192.04-66.91c132.27-67.75-95.75,98.01-95.75,98.01l-254.87,4.75-202.1,12.2-49.72,15.3-33.13,12.68-48.66-7.65"/>
      <polyline class="cls-11" points="411.59 245.23 453.86 249.23 493.38 262.35 531.64 280.97 553.43 292.5 467.16 306.1 376.41 314.72 327.77 310.47 345.53 279.97 383.53 251.26"/>
      <path class="cls-16" d="M329.54,319.15l-8.88,30.4,34.8-1.03,87.6-3.03,94.99-20.16,69.59-17.2s159.8-50.42-54.22-21.7c-214.02,28.72-215.06,15.19-215.06,15.19"/>
      <path class="cls-6" d="M329.19,340.51s109.1,3.65,272.06-42.8l54.7,11.61,101.94-21.29,79.67-49.6,58.98-33.39,65.55-9.94,57.58,13.85,24.87,25.02-119.8,33.31-171.47,56.08-132.2,43.54-122.28,24.45-88.5,13.05-75.41,8.96-9.59-41.72"/>
      <path class="cls-2" d="M344.11,397.88c378.62-9.48,518.43-185.53,697.57-172.44,161.68,11.81-16.21,39.13-16.21,39.13l-310.33,121.7-86.96-9.91-85.53,15.03-49.27,25.86-49.08,22.16-51.88-1.78-35.67-22.92"/>
      <path class="cls-15" d="M685.77,379.14c103.89-49.33,219.74-130.67,329.3-137.93,109.55-7.26,56.05,77.31,56.05,77.31l-122.05,48.96-142.89,63.73"/>
      <path class="cls-1" d="M778.23,393.99c88.9,1.67,214.7-88.27,266.04-79.88,51.34,8.39-50.3,52.5-50.3,52.5l-172.74,84.43"/>
      <path class="cls-7" d="M819.06,419.02c51.62,6.45,180.03-133.77,254.87-129.05,74.84,4.72,9.83,29.18,9.83,29.18l-123.86,66.19-89.03,78.37"/>
      <path class="cls-22" d="M857.19,445.86s112.94-98.48,214.85-148.15c101.91-49.68-38.89,119.54-38.89,119.54l-101.65,70.14"/>
      <path class="cls-17" d="M927.66,479.29s96.16-124.11,148.64-143.81c52.48-19.7-5.59,114.91-5.59,114.91,0,0-66.71,60.14-143.05,28.9Z"/>
    </g>
  </g>
  <path id="Blob_2" data-name="Blob 2" class="cls-9" d="M473.09,268.61l-2.68-1.66c-13.12-7.92-28.5-12.47-44.94-12.47-48.11,0-87.11,39-87.11,87.11s39,87.11,87.11,87.11c17.01,0,33.11-4.62,46.51-13.04,51.13-31.48,111.42-49.7,176.09-49.87,77.98-.2,149.74,26.6,206.71,71.22l10.84,8.88-.4-.34c21.4,15.76,47.82,25.09,76.44,25.09,71.27,0,129.05-57.78,129.05-129.05s-57.78-129.05-129.05-129.05c-28.61,0-55.04,9.33-76.44,25.09l-10.44,8.54c-56.97,44.62-128.73,70.97-206.71,71.22-64.52.21-124.76-17.86-175.88-49.33"/>
  <path id="Blob_1" data-name="Blob 1" class="cls-9" d="M606.91,487.99l2.68-1.66c13.12-7.92,28.5-12.47,44.94-12.47,48.11,0,87.11,39,87.11,87.11,0,48.11-39,87.11-87.11,87.11-17.01,0-33.11-4.62-46.51-13.04-51.13-31.48-111.42-49.7-176.09-49.87-77.98-.2-149.74,26.6-206.71,71.22l-10.84,8.88.4-.34c-21.4,15.76-47.82,25.09-76.44,25.09-71.27,0-129.05-57.78-129.05-129.05s57.78-129.05,129.05-129.05c28.61,0,55.04,9.33,76.44,25.09l10.44,8.54c56.97,44.62,128.73,70.97,206.71,71.22,64.52.21,124.76-17.86,175.88-49.33"/>
  <circle id="Circle_1" data-name="Circle 1" class="cls-9" cx="425.47" cy="780.35" r="87.11"/>
</svg>